<?xml version="1.0" encoding="UTF-8"?>
<svg version="1.1" xmlns="http://www.w3.org/2000/svg" width="100" height="100">
<path d="M0 0 C1.18263428 -0.00132935 1.18263428 -0.00132935 2.38916016 -0.00268555 C7.9841567 0.07694834 12.83077101 0.92222596 18.0859375 2.94921875 C20.35251279 3.58330396 20.35251279 3.58330396 22.3125 1.94140625 C23.2715625 1.13509766 23.2715625 1.13509766 24.25 0.3125 C27.65422074 -0.39182153 29.03110689 -0.64491436 32.25 0.3125 C35.98530037 2.93914957 39.0934643 6.02602114 42.25 9.3125 C42.82621094 9.85777344 43.40242188 10.40304687 43.99609375 10.96484375 C46.5820223 13.60937692 47.57474863 15.76212563 47.75 19.375 C47.25 23.3125 47.25 23.3125 45.5625 25.6875 C43.98705017 28.12861431 43.98705017 28.12861431 44.71875 30.20703125 C44.9971875 30.96371094 45.275625 31.72039063 45.5625 32.5 C49.4690194 43.86287599 48.47532557 57.57333394 43.25 68.3125 C41.4393982 71.47863255 39.44345598 74.40195264 37.25 77.3125 C36.6725 78.17875 36.095 79.045 35.5 79.9375 C27.71849343 88.15131249 16.67870119 93.92965316 5.30859375 94.515625 C3.7683506 94.54048916 2.22792869 94.55566989 0.6875 94.5625 C-0.51543701 94.57059692 -0.51543701 94.57059692 -1.74267578 94.57885742 C-7.40882871 94.5315159 -12.26112424 93.72963779 -17.5859375 91.67578125 C-19.85251279 91.04169604 -19.85251279 91.04169604 -21.8125 92.68359375 C-22.7715625 93.48990234 -22.7715625 93.48990234 -23.75 94.3125 C-27.15422074 95.01682153 -28.53110689 95.26991436 -31.75 94.3125 C-35.48530037 91.68585043 -38.5934643 88.59897886 -41.75 85.3125 C-42.61431641 84.49458984 -42.61431641 84.49458984 -43.49609375 83.66015625 C-46.0820223 81.01562308 -47.07474863 78.86287437 -47.25 75.25 C-46.75 71.3125 -46.75 71.3125 -45.0625 68.9375 C-43.48705017 66.49638569 -43.48705017 66.49638569 -44.21875 64.41796875 C-44.4971875 63.66128906 -44.775625 62.90460938 -45.0625 62.125 C-48.97894128 50.73326427 -47.95087025 37.08244369 -42.75 26.3125 C-35.84274954 13.19746747 -26.39712488 5.99082516 -12.42578125 1.1640625 C-8.19296808 0.18345329 -4.32712575 -0.02812217 0 0 Z M-1.75 4.3125 C-5.65942101 8.47030964 -7.49911874 13.85410906 -8.75 19.3125 C-6.47975032 19.39347324 -4.20867925 19.45167704 -1.9375 19.5 C-0.04064453 19.55220703 -0.04064453 19.55220703 1.89453125 19.60546875 C5.21596445 19.62077421 5.21596445 19.62077421 7.19921875 17.80078125 C7.54597656 17.30964844 7.89273438 16.81851562 8.25 16.3125 C6.93572639 11.71254237 5.27413514 8.04819635 2.25 4.3125 C0.93 4.3125 -0.39 4.3125 -1.75 4.3125 Z M9.25 6.3125 C9.91 8.2925 10.57 10.2725 11.25 12.3125 C12.24 11.6525 13.23 10.9925 14.25 10.3125 C14.25 9.6525 14.25 8.9925 14.25 8.3125 C11.775 7.3225 11.775 7.3225 9.25 6.3125 Z M-9.75 6.3125 C-15.55420355 9.64991704 -19.46434147 14.22192084 -23.75 19.3125 C-23.42 19.9725 -23.09 20.6325 -22.75 21.3125 C-19.12609014 21.22259384 -16.05278044 20.85793248 -12.75 19.3125 C-10.56226462 15.85620062 -9.42722709 12.33858399 -8.75 8.3125 C-9.08 7.6525 -9.41 6.9925 -9.75 6.3125 Z M27.25 16.3125 C25.93 17.9625 24.61 19.6125 23.25 21.3125 C26.22 21.8075 26.22 21.8075 29.25 22.3125 C29.91 20.9925 30.57 19.6725 31.25 18.3125 C29.93 17.6525 28.61 16.9925 27.25 16.3125 Z M-5.375 22.8125 C-6.60089844 22.95171875 -6.60089844 22.95171875 -7.8515625 23.09375 C-8.47804687 23.1659375 -9.10453125 23.238125 -9.75 23.3125 C-11.26537186 31.0652507 -12.02990605 38.41292938 -11.75 46.3125 C-7.8349258 46.70895008 -7.8349258 46.70895008 -5.57421875 44.703125 C-4.86910156 43.99671875 -4.16398437 43.2903125 -3.4375 42.5625 C-2.36048828 41.51835938 -2.36048828 41.51835938 -1.26171875 40.453125 C0.50078141 38.46909381 0.50078141 38.46909381 -0.0078125 36.296875 C-0.25273438 35.64203125 -0.49765625 34.9871875 -0.75 34.3125 C-1.11845457 29.92531995 -1.27599063 26.10148594 1.25 22.3125 C-0.99374952 22.3125 -3.14568543 22.55772119 -5.375 22.8125 Z M-20.3125 24.3125 C-21.32441406 24.498125 -22.33632813 24.68375 -23.37890625 24.875 C-24.55259766 25.0915625 -24.55259766 25.0915625 -25.75 25.3125 C-26.07595099 35.50125454 -26.07595099 35.50125454 -23.75 45.3125 C-21.11 45.3125 -18.47 45.3125 -15.75 45.3125 C-15.09 38.0525 -14.43 30.7925 -13.75 23.3125 C-15.94244528 23.3125 -18.1667768 23.91788424 -20.3125 24.3125 Z M19.25 24.3125 C17.93 25.9625 16.61 27.6125 15.25 29.3125 C16.57 30.3025 17.89 31.2925 19.25 32.3125 C21.23 30.0025 23.21 27.6925 25.25 25.3125 C22.28 24.8175 22.28 24.8175 19.25 24.3125 Z M36.625 33.25 C33.99368233 36.64301489 33.96243264 37.10909726 34.4375 41.125 C34.68199192 42.52568736 34.94443774 43.92385566 35.25 45.3125 C37.89 45.3125 40.53 45.3125 43.25 45.3125 C43.13512252 43.72840006 43.00765492 42.14521037 42.875 40.5625 C42.80539063 39.68078125 42.73578125 38.7990625 42.6640625 37.890625 C42.25149945 35.32183618 41.53839043 33.55408985 40.25 31.3125 C38.84032972 31.21352462 38.84032972 31.21352462 36.625 33.25 Z M7.21176147 36.07284546 C6.67523956 36.61341583 6.13871765 37.15398621 5.5859375 37.7109375 C4.75783066 38.53617416 4.75783066 38.53617416 3.91299438 39.37808228 C2.7455231 40.54419078 1.58058087 41.7128359 0.41796875 42.88378906 C-1.36762134 44.68007713 -3.16360481 46.46547023 -4.9609375 48.25 C-6.09178768 49.38217176 -7.22201732 50.51496376 -8.3515625 51.6484375 C-8.89213287 52.18495941 -9.43270325 52.72148132 -9.98965454 53.27426147 C-12.85780922 55.81851026 -12.85780922 55.81851026 -13.75 59.3125 C-8.87989904 58.90698009 -6.46866641 56.56185925 -3.23046875 53.18359375 C-2.72703445 52.67449966 -2.22360016 52.16540558 -1.70491028 51.6408844 C-0.10610535 50.01976789 1.47819606 48.38527866 3.0625 46.75 C4.14685713 45.64557117 5.23213408 44.54204463 6.31835938 43.43945312 C8.97300912 40.74080552 11.61474126 38.03008089 14.25 35.3125 C13.92 34.3225 13.59 33.3325 13.25 32.3125 C10.29908155 32.3125 9.21293896 34.09688156 7.21176147 36.07284546 Z M29.25 41.3125 C28.2239266 42.62587396 27.22272675 43.95914105 26.25 45.3125 C27.9 45.3125 29.55 45.3125 31.25 45.3125 C30.92 43.9925 30.59 42.6725 30.25 41.3125 C29.92 41.3125 29.59 41.3125 29.25 41.3125 Z M9.25 47.3125 C7.71452525 48.71328398 6.19694852 50.13370903 4.6875 51.5625 C3.84058594 52.35140625 2.99367187 53.1403125 2.12109375 53.953125 C-0.014547 56.08197847 -0.014547 56.08197847 0.4609375 58.359375 C0.72132812 59.00390625 0.98171875 59.6484375 1.25 60.3125 C1.41796875 62.3125 1.41796875 62.3125 1.4375 64.3125 C1.45167969 64.9725 1.46585938 65.6325 1.48046875 66.3125 C1.25 68.3125 1.25 68.3125 -0.75 72.3125 C2.88 71.9825 6.51 71.6525 10.25 71.3125 C11.71889344 63.50900361 12.53115773 56.2473958 12.25 48.3125 C11.26 47.9825 10.27 47.6525 9.25 47.3125 Z M16.25 49.3125 C15.59 56.5725 14.93 63.8325 14.25 71.3125 C18.54 70.6525 22.83 69.9925 27.25 69.3125 C29.47878763 62.52923331 30.74137199 56.43329209 31.25 49.3125 C26.3 49.3125 21.35 49.3125 16.25 49.3125 Z M35.25 49.3125 C34.74645133 51.74931587 34.24703244 54.18685439 33.75 56.625 C33.60691406 57.31529297 33.46382813 58.00558594 33.31640625 58.71679688 C32.72374956 61.63774773 32.25 64.32358122 32.25 67.3125 C37.44712902 66.36185395 37.44712902 66.36185395 41.125 62.8125 C42.56606063 58.32920025 42.98150073 53.99734928 43.25 49.3125 C40.61 49.3125 37.97 49.3125 35.25 49.3125 Z M29.25 72.3125 C28.92 73.3025 28.59 74.2925 28.25 75.3125 C30.56 74.6525 32.87 73.9925 35.25 73.3125 C35.25 72.6525 35.25 71.9925 35.25 71.3125 C32.19729537 71.15438612 32.19729537 71.15438612 29.25 72.3125 Z M23.25 73.3125 C19.95 73.9725 16.65 74.6325 13.25 75.3125 C13.25 75.6425 13.25 75.9725 13.25 76.3125 C16.55 76.3125 19.85 76.3125 23.25 76.3125 C23.25 75.3225 23.25 74.3325 23.25 73.3125 Z " fill="#3D8987" transform="translate(49.75,2.6875)"/>
<path d="M0 0 C0.70737305 0.2676416 1.41474609 0.5352832 2.14355469 0.81103516 C2.14355469 4.81103516 2.14355469 4.81103516 0.21582031 7.19287109 C-0.66396484 8.05170898 -1.54375 8.91054688 -2.45019531 9.79541016 C-2.91631226 10.25586731 -3.3824292 10.71632446 -3.8626709 11.19073486 C-5.35146352 12.65716257 -6.85356253 14.10906499 -8.35644531 15.56103516 C-9.36907314 16.55359813 -10.38080346 17.54707765 -11.39160156 18.54150391 C-13.86956222 20.97539673 -16.35964809 23.39645263 -18.85644531 25.81103516 C-17.30449777 29.13863439 -15.55022583 31.29684001 -12.85644531 33.81103516 C-9.18892526 32.27185505 -6.87063959 30.05618064 -4.09082031 27.24072266 C-3.20136719 26.34482422 -2.31191406 25.44892578 -1.39550781 24.52587891 C-0.01492187 23.12015625 -0.01492187 23.12015625 1.39355469 21.68603516 C2.33840325 20.73114879 3.28371102 19.77671657 4.22949219 18.82275391 C6.53873807 16.48994429 8.84318671 14.15259429 11.14355469 11.81103516 C12.46355469 12.47103516 13.78355469 13.13103516 15.14355469 13.81103516 C14.73825986 18.71599826 12.31360964 21.25462647 8.97167969 24.58447266 C8.45224792 25.11247467 7.93281616 25.64047668 7.39764404 26.18447876 C6.29982477 27.29375293 5.19676807 28.39786516 4.08886719 29.49707031 C2.39534966 31.1842469 0.73025522 32.89637781 -0.93457031 34.61181641 C-2.00586366 35.68765406 -3.07872914 36.76192899 -4.15332031 37.83447266 C-4.64934753 38.34891937 -5.14537476 38.86336609 -5.65643311 39.3934021 C-7.97141737 41.64791342 -9.19774305 42.81504645 -12.50244141 42.79492188 C-16.37240271 41.17742094 -18.81659503 38.50812936 -21.73144531 35.56103516 C-22.64023437 34.70058594 -22.64023437 34.70058594 -23.56738281 33.82275391 C-24.13457031 33.25685547 -24.70175781 32.69095703 -25.28613281 32.10791016 C-25.8041748 31.59583008 -26.3222168 31.08375 -26.85595703 30.55615234 C-27.85644531 28.81103516 -27.85644531 28.81103516 -27.84033203 26.46582031 C-26.52761509 22.92376472 -24.31053449 20.65406686 -21.68457031 18.03759766 C-21.16513855 17.50959564 -20.64570679 16.98159363 -20.11053467 16.43759155 C-19.01271539 15.32831738 -17.9096587 14.22420515 -16.80175781 13.125 C-15.10824029 11.43782341 -13.44314585 9.7256925 -11.77832031 8.01025391 C-10.70702696 6.93441626 -9.63416149 5.86014132 -8.55957031 4.78759766 C-8.06354309 4.27315094 -7.56751587 3.75870422 -7.05645752 3.22866821 C-3.5032188 -0.2317514 -3.5032188 -0.2317514 0 0 Z " fill="#A2D6A6" transform="translate(33.8564453125,51.18896484375)"/>
<path d="M0 0 C3.8699613 1.61750094 6.31415362 4.28679252 9.22900391 7.23388672 C9.83486328 7.80751953 10.44072266 8.38115234 11.06494141 8.97216797 C11.63212891 9.53806641 12.19931641 10.10396484 12.78369141 10.68701172 C13.3017334 11.1990918 13.81977539 11.71117187 14.35351562 12.23876953 C15.35400391 13.98388672 15.35400391 13.98388672 15.33789062 16.32910156 C14.02517368 19.87115715 11.80809309 22.14085501 9.18212891 24.75732422 C8.66269714 25.28532623 8.14326538 25.81332825 7.60809326 26.35733032 C6.51027399 27.46660449 5.40721729 28.57071672 4.29931641 29.66992188 C2.60579888 31.35709847 0.94070444 33.06922938 -0.72412109 34.78466797 C-1.79541445 35.86050562 -2.86827992 36.93478056 -3.94287109 38.00732422 C-4.43889832 38.52177094 -4.93492554 39.03621765 -5.44598389 39.56625366 C-6.89111328 40.97363281 -6.89111328 40.97363281 -9.64599609 42.98388672 C-12.50244141 42.79492188 -12.50244141 42.79492188 -14.64599609 41.98388672 C-14.64599609 37.98388672 -14.64599609 37.98388672 -12.71826172 35.60205078 C-11.83847656 34.74321289 -10.95869141 33.884375 -10.05224609 32.99951172 C-9.58612915 32.53905457 -9.12001221 32.07859741 -8.63977051 31.60418701 C-7.15097789 30.1377593 -5.64887887 28.68585688 -4.14599609 27.23388672 C-3.13336826 26.24132374 -2.12163795 25.24784422 -1.11083984 24.25341797 C1.36712082 21.81952515 3.85720668 19.39846924 6.35400391 16.98388672 C4.80205636 13.65628749 3.04778442 11.49808187 0.35400391 8.98388672 C-3.31351614 10.52306682 -5.63180182 12.73874124 -8.41162109 15.55419922 C-9.30107422 16.45009766 -10.19052734 17.34599609 -11.10693359 18.26904297 C-12.48751953 19.67476562 -12.48751953 19.67476562 -13.89599609 21.10888672 C-14.84084466 22.06377308 -15.78615243 23.0182053 -16.73193359 23.97216797 C-19.04117948 26.30497758 -21.34562812 28.64232758 -23.64599609 30.98388672 C-24.96599609 30.32388672 -26.28599609 29.66388672 -27.64599609 28.98388672 C-27.24070126 24.07892361 -24.81605105 21.54029541 -21.47412109 18.21044922 C-20.95468933 17.6824472 -20.43525757 17.15444519 -19.90008545 16.61044312 C-18.80226618 15.50116894 -17.69920948 14.39705672 -16.59130859 13.29785156 C-14.89779107 11.61067497 -13.23269663 9.89854406 -11.56787109 8.18310547 C-10.49657774 7.10726782 -9.42371227 6.03299288 -8.34912109 4.96044922 C-7.85309387 4.4460025 -7.35706665 3.93155579 -6.8460083 3.40151978 C-4.53102404 1.14700845 -3.30469836 -0.02012457 0 0 Z " fill="#A2D6A6" transform="translate(78.64599609375,6.01611328125)"/>
<path d="M0 0 C1.39456452 0.00667256 2.78911118 0.01863093 4.18359375 0.03515625 C4.89451172 0.03966797 5.60542969 0.04417969 6.33789062 0.04882812 C8.09899388 0.06064761 9.86005411 0.07858362 11.62109375 0.09765625 C10.64259011 5.89142782 9.53046523 10.49839569 5.62109375 15.09765625 C3.68359375 16.28515625 3.68359375 16.28515625 1.62109375 16.09765625 C-1.91980431 13.23121496 -4.26530807 10.55204898 -5.37890625 6.09765625 C-4.70143162 0.13587953 -4.70143162 0.13587953 0 0 Z " fill="#CBED9D" transform="translate(47.37890625,77.90234375)"/>
<path d="M0 0 C-0.309375 1.27875 -0.61875 2.5575 -0.9375 3.875 C-2.0642468 8.90140948 -2.56649742 13.87021944 -3 19 C-5.97 19 -8.94 19 -12 19 C-12.28728389 12.77551565 -12.32766129 8.36719563 -9 3 C-6.21510023 1.18852584 -3.37634713 0 0 0 Z " fill="#C9EC9D" transform="translate(19,29)"/>
<path d="M0 0 C2.97 0 5.94 0 9 0 C9.92017937 8.77578475 9.92017937 8.77578475 7.6640625 11.77734375 C6 13.125 6 13.125 3 15 C-0.24013514 9.7347804 -0.27288764 6.00352801 0 0 Z " fill="#CCEE9D" transform="translate(7,52)"/>
<path d="M0 0 C-1.62156024 4.10108886 -4.5767703 6.83148167 -7.6640625 9.859375 C-8.21613373 10.40861633 -8.76820496 10.95785767 -9.33700562 11.52374268 C-11.09501815 13.27059293 -12.8598689 15.01034601 -14.625 16.75 C-15.8207708 17.93573591 -17.01608865 19.1219288 -18.2109375 20.30859375 C-21.13540253 23.21105085 -24.06601874 26.1071641 -27 29 C-28.9375 28.1875 -28.9375 28.1875 -31 27 C-31.33 26.01 -31.66 25.02 -32 24 C-30.96141846 23.94078369 -29.92283691 23.88156738 -28.8527832 23.82055664 C-24.38838508 22.8697397 -22.34389088 21.1010956 -19.35546875 17.87109375 C-18.8596077 17.36199966 -18.36374664 16.85290558 -17.8528595 16.3283844 C-16.28278098 14.71176116 -14.73457076 13.07612767 -13.1875 11.4375 C-11.61917597 9.79905644 -10.04661682 8.16499666 -8.46858215 6.53590393 C-7.04616429 5.06407154 -5.63640278 3.58003914 -4.22729492 2.09545898 C-2 0 -2 0 0 0 Z " fill="#C6E99D" transform="translate(66,37)"/>
<path d="M0 0 C3.63 0 7.26 0 11 0 C8.52924585 5.09593044 4.56103481 8.74336862 0 12 C-2.25390625 12.703125 -2.25390625 12.703125 -4 13 C-3.52140759 11.39566191 -3.04210442 9.79153584 -2.5625 8.1875 C-2.29566406 7.29417969 -2.02882812 6.40085937 -1.75390625 5.48046875 C-1.19612127 3.64526945 -0.60655425 1.81966274 0 0 Z " fill="#C8EB9D" transform="translate(62,79)"/>
<path d="M0 0 C0.33 0 0.66 0 1 0 C1.66 6.6 2.32 13.2 3 20 C0.69 20 -1.62 20 -4 20 C-4.33358143 13.10598384 -3.47557267 7.46470791 -1 1 C-0.67 0.67 -0.34 0.34 0 0 Z " fill="#C7EA9C" transform="translate(23,28)"/>
<path d="M0 0 C0 3.60648031 -0.89987686 4.65229471 -2.9375 7.5625 C-5.1283185 10.68680228 -5.1283185 10.68680228 -7 14 C-9.64860427 14.59355614 -12.29197322 14.74209269 -15 15 C-11.68406503 8.56318506 -6.43681494 3.31593497 0 0 Z " fill="#C3E79C" transform="translate(28,12)"/>
<path d="M0 0 C1.32 1.32 2.64 2.64 4 4 C2.125 7.875 2.125 7.875 1 9 C-1.67058851 9.14115161 -4.32432238 9.04247107 -7 9 C-5.44499019 5.18315774 -2.96404505 2.80804268 0 0 Z " fill="#C4E89C" transform="translate(31,64)"/>
<path d="M0 0 C-4.05489233 4.27083334 -7.96318503 7.92877136 -13 11 C-13.66 10.67 -14.32 10.34 -15 10 C-13.54540569 8.35086118 -12.08620743 6.70578218 -10.625 5.0625 C-9.81289062 4.14597656 -9.00078125 3.22945313 -8.1640625 2.28515625 C-5.12217155 -0.92694881 -4.11032937 -1.23309881 0 0 Z " fill="#C2E69B" transform="translate(84,78)"/>
<path d="M0 0 C2.69082872 0.17635452 5.32851446 0.61835921 8 1 C6.35 2.98 4.7 4.96 3 7 C1.68 6.34 0.36 5.68 -1 5 C-1 1 -1 1 0 0 Z " fill="#C3E89C" transform="translate(20,75)"/>
<path d="M0 0 C3.05882701 1.52941351 3.68951234 3.94219546 5 7 C4.67 7.66 4.34 8.32 4 9 C0.535 7.02 0.535 7.02 -3 5 C-1.125 1.125 -1.125 1.125 0 0 Z " fill="#C0E69B" transform="translate(38,84)"/>
<path d="M0 0 C1.98 0 3.96 0 6 0 C4.35830472 2.02054804 2.69088222 4.02043058 1 6 C0.67 6 0.34 6 0 6 C0 4.02 0 2.04 0 0 Z " fill="#CBEE9D" transform="translate(19,52)"/>
</svg>
