<?xml version="1.0" encoding="UTF-8"?>
<svg version="1.1" xmlns="http://www.w3.org/2000/svg" width="100" height="100">
<path d="M0 0 C2.3125 1.5 2.3125 1.5 4 3 C4.33 2.01 4.66 1.02 5 0 C9.33320395 -0.08772579 13.66617668 -0.14063579 18 -0.1875 C19.22074219 -0.21263672 20.44148438 -0.23777344 21.69921875 -0.26367188 C31.17691823 -0.34051809 38.30975118 0.62072364 45.45703125 7.27734375 C50.37189826 12.76457502 51.44666842 17.83614883 51.140625 25.09375 C51.09421875 25.7228125 51.0478125 26.351875 51 27 C51.556875 27.02578125 52.11375 27.0515625 52.6875 27.078125 C59.36627365 27.57452034 65.07175363 28.83801335 69.76171875 33.90234375 C71.28885753 35.88799394 72.69060829 37.86494091 74 40 C74.37640625 40.59296875 74.7528125 41.1859375 75.140625 41.796875 C77.36677294 47.5039088 76.85572427 55.65396439 75.34765625 61.55078125 C72.47833385 67.89284578 67.30921864 72.25565104 60.9375 74.875 C57.55099497 75.98629971 54.57839199 76.42599905 51 76 C50.34 75.34 49.68 74.68 49 74 C45.69316534 74.28983269 45.69316534 74.28983269 43 76 C39.34217083 76.31096695 35.66939804 76.27864946 32 76.3125 C30.47439453 76.35600586 30.47439453 76.35600586 28.91796875 76.40039062 C20.72786088 76.46872914 15.21616588 74.49137075 8.25 70.375 C3.58984036 65.4559426 0.6875 59.71557183 0.6875 52.875 C0.790625 51.59625 0.89375 50.3175 1 49 C-0.299375 48.938125 -1.59875 48.87625 -2.9375 48.8125 C-9.37808444 48.05299712 -14.64369209 45.81571385 -18.86328125 40.7734375 C-23.97462061 33.28331251 -24.88450418 27.0301706 -24 18 C-21.83022756 10.55788333 -17.70353303 5.77403631 -11 2 C-7.26135538 0.38725134 -4.06927892 -0.53543144 0 0 Z " fill="#14D0E4" transform="translate(24,12)"/>
<path d="M0 0 C1.53333984 0.02030273 1.53333984 0.02030273 3.09765625 0.04101562 C5.60732049 0.07619783 8.1158809 0.12542461 10.625 0.1875 C7.55620561 4.7293157 4.82546033 6.49345139 -0.375 8.1875 C-3.18857312 8.62655865 -5.96848215 8.78392898 -8.8125 8.875 C-9.90981445 8.92624023 -9.90981445 8.92624023 -11.02929688 8.97851562 C-12.81069562 9.06001753 -14.59281749 9.12545523 -16.375 9.1875 C-16.705 10.8375 -17.035 12.4875 -17.375 14.1875 C-1.93451352 14.51830025 -1.93451352 14.51830025 11.625 8.1875 C12.69348852 6.76371312 13.71579356 5.30401715 14.6875 3.8125 C16.06640625 1.7421875 16.06640625 1.7421875 17.625 0.1875 C22.22916705 -0.73166221 25.81700632 0.76796482 29.875 2.875 C37.3270989 9.14153771 37.3270989 9.14153771 38.0390625 14.03125 C38.19366991 19.70955849 38.07815156 24.46819287 34.625 29.1875 C30.51711585 33.49099768 27.44408639 34.81477027 21.578125 35.6328125 C19.23464214 36.07010972 19.23464214 36.07010972 17.625 39.1875 C15.1875 38.8125 15.1875 38.8125 12.625 38.1875 C12.295 37.5275 11.965 36.8675 11.625 36.1875 C10.63487915 36.17348145 10.63487915 36.17348145 9.62475586 36.15917969 C6.60327535 36.10514427 3.58328824 36.02156307 0.5625 35.9375 C-0.47583984 35.92332031 -1.51417969 35.90914062 -2.58398438 35.89453125 C-9.03074595 35.68987215 -13.12670282 35.01600211 -18.375 31.1875 C-23.3800284 25.65562651 -23.84214601 21.89106992 -23.78515625 14.53125 C-23.17586885 9.56410704 -21.19178034 6.37600374 -17.375 3.1875 C-11.81911095 -0.58876834 -6.45783616 -0.16248749 0 0 Z " fill="#CCF7FE" transform="translate(55.375,45.8125)"/>
<path d="M0 0 C1.9375 0.375 1.9375 0.375 4 1 C4.33 1.66 4.66 2.32 5 3 C5.69037354 3.01458252 6.38074707 3.02916504 7.09204102 3.04418945 C10.2493966 3.11910617 13.40574501 3.21562217 16.5625 3.3125 C17.64853516 3.33505859 18.73457031 3.35761719 19.85351562 3.38085938 C26.84056513 3.61446893 32.54255277 3.90758206 37.9609375 8.75390625 C38.42757812 9.35074219 38.89421875 9.94757812 39.375 10.5625 C39.85710937 11.16191406 40.33921875 11.76132812 40.8359375 12.37890625 C42.92114781 15.28280652 43.11290931 17.09634803 43.0625 20.625 C43.05347656 21.44226563 43.04445312 22.25953125 43.03515625 23.1015625 C43.02355469 23.72804688 43.01195312 24.35453125 43 25 C41.89712646 24.99830811 41.89712646 24.99830811 40.77197266 24.99658203 C37.38875484 25.00880733 34.0077238 25.06661426 30.625 25.125 C28.89056641 25.12113281 28.89056641 25.12113281 27.12109375 25.1171875 C19.09471835 25.29857451 13.22795801 26.73780884 7 32 C5.22578173 34.30231457 4.18108988 36.31570481 3 39 C-3.04192443 39.62936713 -7.26763867 39.12542431 -12.26953125 35.53125 C-16.17478914 32.07558162 -17.72283593 29.14802151 -18.375 24.09375 C-18.56594492 19.27239088 -18.42666008 15.88492462 -16.3125 11.5 C-11.20982829 5.98359815 -7.30416665 4.2094045 0 3 C0 2.01 0 1.02 0 0 Z " fill="#C6F6FE" transform="translate(25,15)"/>
</svg>
