<?xml version="1.0" encoding="UTF-8"?>
<svg version="1.1" xmlns="http://www.w3.org/2000/svg" width="100" height="100">
<path d="M0 0 C2.02341579 0.00316121 4.04536761 -0.02035464 6.06860352 -0.0456543 C21.04864247 -0.05310335 21.04864247 -0.05310335 27.33618164 5.18286133 C27.87500977 5.84543945 28.41383789 6.50801758 28.96899414 7.19067383 C29.80043945 8.17680664 29.80043945 8.17680664 30.64868164 9.18286133 C32.09399414 11.31567383 32.09399414 11.31567383 32.90649414 14.01098633 C33.49430664 15.15180664 33.49430664 15.15180664 34.09399414 16.31567383 C36.91980473 17.17808222 36.91980473 17.17808222 40.21899414 17.31567383 C47.21655567 18.16526739 52.1738401 19.63437688 56.65258789 25.28051758 C61.15919264 32.1361741 62.05127186 38.58158027 60.70336914 46.65551758 C59.01431072 52.98948666 55.51518695 56.73133206 50.09399414 60.31567383 C45.90415374 62.38995091 42.04392593 62.63685156 37.44946289 62.65161133 C36.72084549 62.65826813 35.99222809 62.66492493 35.24153137 62.67178345 C33.70434072 62.68187565 32.16710656 62.68660153 30.62988281 62.6862793 C28.29881102 62.69064142 25.96965197 62.72696239 23.63891602 62.76489258 C14.80923617 62.83335257 7.78617652 62.79417048 1.03540039 56.35083008 C-3.6337912 49.6711084 -3.6337912 49.6711084 -3.90600586 45.31567383 C-4.53506836 45.35047852 -5.16413086 45.3852832 -5.81225586 45.42114258 C-12.76607524 45.64106759 -18.52273406 45.33859716 -23.88647461 40.54614258 C-29.80479612 34.16411753 -31.36641669 28.68584202 -31.14428711 20.05786133 C-30.49878042 12.62924333 -27.80229733 8.62747329 -22.23413086 3.76098633 C-15.42626212 -0.46537514 -7.72598647 -0.02524527 0 0 Z M-18.90600586 15.31567383 C-20.87855896 19.26078002 -20.34725957 24.0150039 -19.90600586 28.31567383 C-18.00173146 31.90449866 -16.6987004 32.95379154 -13.03100586 34.62817383 C-9.88056532 35.32127075 -7.12065382 35.4687523 -3.90600586 35.31567383 C-3.59469727 34.44555664 -3.59469727 34.44555664 -3.27709961 33.55786133 C-0.98749718 27.75242587 1.3326828 23.14642838 7.09399414 20.31567383 C12.32745836 18.81846095 17.71032088 18.05245504 23.09399414 17.31567383 C20.54794817 13.79185696 20.54794817 13.79185696 17.09399414 11.31567383 C12.72387131 11.05726595 8.34993716 11.04464001 3.97314453 11.02050781 C1.79989175 11.00331934 -0.37182932 10.95943576 -2.54467773 10.9152832 C-3.93203636 10.90515357 -5.3194079 10.89663831 -6.70678711 10.88989258 C-7.966604 10.87531006 -9.2264209 10.86072754 -10.52441406 10.84570312 C-14.48490046 11.3961281 -16.09920399 12.5276856 -18.90600586 15.31567383 Z M7.09399414 33.31567383 C7.09399414 33.97567383 7.09399414 34.63567383 7.09399414 35.31567383 C11.59722146 35.49227098 15.12192657 35.57009056 19.09399414 33.31567383 C21.38976658 30.80161072 21.38976658 30.80161072 23.09399414 28.31567383 C15.94675938 27.68005018 12.03173257 27.85817346 7.09399414 33.31567383 Z M34.09399414 28.31567383 C33.86325195 28.83516602 33.63250977 29.3546582 33.39477539 29.88989258 C30.3919657 36.31092041 27.08275149 41.0587225 20.20727539 43.75708008 C15.92372822 44.88933007 11.50393315 45.0844112 7.09399414 45.31567383 C8.52622344 48.18013242 9.42482652 49.9721761 12.32080078 51.45874023 C17.5878787 53.08629931 23.06196696 52.68488903 28.53149414 52.69067383 C30.35390625 52.72741211 30.35390625 52.72741211 32.21313477 52.76489258 C40.98932145 52.85488244 40.98932145 52.85488244 48.09399414 48.31567383 C51.05666258 43.87167116 50.86345308 39.52666306 50.09399414 34.31567383 C47.89239675 31.41883515 46.30804952 29.92270152 43.09399414 28.31567383 C41.55375418 28.24616841 40.01064426 28.23115025 38.46899414 28.25317383 C37.65172852 28.26219727 36.83446289 28.2712207 35.99243164 28.28051758 C35.36594727 28.29211914 34.73946289 28.3037207 34.09399414 28.31567383 Z " fill="#3B7C96" transform="translate(34.906005859375,17.684326171875)"/>
<path d="M0 0 C1.16724609 -0.01160156 2.33449219 -0.02320313 3.53710938 -0.03515625 C11.91729935 -0.00682885 18.58779753 0.97801544 25.75 5.4375 C30.29213354 10.4021576 32.60321462 16.19013261 32.875 22.9375 C32.46211125 30.03167943 30.91276702 35.43669063 25.5625 40.3125 C20.30384525 44.67409012 15.52840951 45.68929981 8.79296875 45.7109375 C8.06435135 45.7175943 7.33573395 45.7242511 6.58503723 45.73110962 C5.04784658 45.74120182 3.51061242 45.7459277 1.97338867 45.74560547 C-0.35768312 45.74996759 -2.68684217 45.78628857 -5.01757812 45.82421875 C-13.85643781 45.89269059 -20.81872325 45.82172811 -27.62109375 39.4453125 C-30.45444007 35.44812704 -32.30965748 32.43185047 -32.5625 27.375 C-29.18240483 27.08472465 -25.93313357 26.93303699 -22.5625 27.375 C-20.25 29.75 -20.25 29.75 -18.5625 32.375 C-12.74622348 35.37112792 -6.50943769 34.74324755 -0.125 34.75 C1.69741211 34.78673828 1.69741211 34.78673828 3.55664062 34.82421875 C12.3261875 34.9091756 12.3261875 34.9091756 19.4375 30.375 C21.40133797 26.44732406 20.91260337 21.65726501 20.4375 17.375 C18.31233794 14.39977312 16.2778669 12.69627095 12.625 12.05859375 C6.87018376 11.41117692 1.22569802 11.18522302 -4.5625 11.375 C-5.52027344 11.40335938 -6.47804688 11.43171875 -7.46484375 11.4609375 C-12.98571828 11.77218143 -16.64867237 12.06978961 -20.5625 16.375 C-20.8925 17.035 -21.2225 17.695 -21.5625 18.375 C-25.1925 18.375 -28.8225 18.375 -32.5625 18.375 C-32.5625 12.68569437 -29.70024167 9.59160214 -26.25390625 5.42578125 C-18.6220499 -0.38949391 -9.2002447 -0.09174759 0 0 Z " fill="#F48224" transform="translate(63.5625,34.625)"/>
</svg>
